# xmcd
#
# Track frame offsets: 
#        183
#        11500
#        22148
#        41810
#        56465
#        71968
#        91045
#        101648
#        117338
#        129833
#        140228
#        153175
#        170633
#        196528
#        212663
#        225760
#        239770
#        253830
#        267250
#        281403
#
# Disc length: 4042 seconds
#
# Revision: 3
# Processed by: cddbd v1.5.2PL0 Copyright (c) Steve Scherf et al.
# Submitted via: ExactAudioCopy v1.0b3
#
DISCID=1a0fc814
DTITLE=Wes Montgomery - A&M Gold Series
DYEAR=1967
DGENRE=Jazz
TTITLE0=California Nights
TTITLE1=Windy
TTITLE2=Switchin'
TTITLE3=I Say A Little Prayer For You
TTITLE4=Yesterday
TTITLE5=Pata Pata
TTITLE6=Wind Song
TTITLE7=Butterfly
TTITLE8=Georgia On My Mind
TTITLE9=Hello Young Lovers
TTITLE10=Fly Me To The Moon
TTITLE11=Road Song
TTITLE12=A Day In The Life
TTITLE13=Down Here On The Ground
TTITLE14=When A Man Loves A Woman
TTITLE15=Eleanor Rigby
TTITLE16=Where Have All The Flowers Gone?
TTITLE17=Know It All (Quem Diz Que Sabe)
TTITLE18=My Favorite Things
TTITLE19=Scarborough Fair (Canticle)
EXTD=YEAR: 1967
EXTT0=
EXTT1=
EXTT2=
EXTT3=
EXTT4=
EXTT5=
EXTT6=
EXTT7=
EXTT8=
EXTT9=
EXTT10=
EXTT11=
EXTT12=
EXTT13=
EXTT14=
EXTT15=
EXTT16=
EXTT17=
EXTT18=
EXTT19=
PLAYORDER=
